<?xml version="1.0" encoding="UTF-8"?>
<svg width="102px" height="30px" viewBox="0 0 102 30" version="1.1" xmlns="http://www.w3.org/2000/svg" xmlns:xlink="http://www.w3.org/1999/xlink">
    <!-- Generator: Sketch 50.2 (55047) - http://www.bohemiancoding.com/sketch -->
    <title>ic_logo_small</title>
    <desc>Created with Sketch.</desc>
    <defs>
        <polygon id="path-1" points="0 -1.03334008e-13 6.66666667 -1.03334008e-13 6.66666667 6.66666667 0 6.66666667"></polygon>
    </defs>
    <g id="Page-1" stroke="none" stroke-width="1" fill="none" fill-rule="evenodd">
        <g id="切图板" transform="translate(-257.000000, -63.000000)">
            <g id="Group-9" transform="translate(257.000000, 63.000000)">
                <g id="Group">
                    <path d="M58.3863588,13.2784088 C58.2772484,13.2784088 58.1843025,13.3557504 58.1645587,13.4623533 L57.9536119,14.6031996 L62.6534425,14.6031996 L58.2321032,19.2605651 C58.0771549,19.4178876 57.9940231,19.6240937 57.9973715,19.8452173 C58.0054538,20.2983658 58.3842805,20.6674023 58.8416206,20.6674023 L69.0008983,20.6674023 C69.4575456,20.6674023 69.8233254,20.2983658 69.8151277,19.8452173 C69.8124721,19.6852556 69.762593,19.5304576 69.6718408,19.3955114 L69.6070673,19.2999245 L69.6097229,19.2971705 L67.9334635,16.746733 L66.0872458,16.746733 L67.7956033,19.3426115 L60.1697659,19.3426115 L64.671004,14.6031996 L71.2067763,14.6031996 C71.3160022,14.6031996 71.4095254,14.5265465 71.4292692,14.4200583 L71.6395233,13.2784088 L58.3863588,13.2784088 Z M43.2855912,14.5393985 L42.4577374,14.5393985 L43.0501667,11.3262787 L43.8787131,11.3262787 L43.2855912,14.5393985 Z M44.4432008,14.5393985 L45.0349373,11.3262787 L45.870296,11.3262787 L45.3932121,13.9174525 C45.3372136,14.2809811 45.0307807,14.5393985 44.6636154,14.5393985 L44.4172222,14.5393985 L44.4432008,14.5393985 Z M51.9584269,15.2665704 L50.510087,15.2665704 C50.4015539,15.2665704 50.3080306,15.343912 50.2882868,15.4497117 L50.1729415,16.0643137 L46.7719291,16.0643137 C46.663396,16.0643137 46.570681,16.1416553 46.550129,16.2481434 L46.3433387,17.3613349 L49.1116261,17.3613349 C48.3178333,18.0693435 47.2900016,18.7151575 46.0573424,19.2794989 C46.0423325,19.1308974 45.9767508,18.5774573 45.9140556,18.042951 C45.8901552,17.8414497 45.8661394,17.6373091 45.8444327,17.4507253 L45.8451255,17.4507253 C45.8062152,17.1156548 45.7741171,16.8402544 45.7645339,16.741225 L45.5427337,16.7629127 L45.5413482,16.7629127 L44.9653144,16.8192551 C44.9052748,16.8246483 44.8499691,16.8537949 44.8117516,16.9013015 C44.7735341,16.9481195 44.7564459,17.0077896 44.7632581,17.0675745 L44.9066604,18.3142204 L43.9837824,18.4038403 L44.4268054,16.0072828 L45.0819298,16.0072828 C45.6997604,16.0072828 46.2279934,15.5718059 46.3392976,14.9708592 L47.2804183,9.85977146 L45.562593,9.85977146 L45.957007,7.71554961 L44.4451637,7.71554961 C44.3366305,7.71554961 44.2432228,7.79220273 44.2233635,7.89869089 L43.8616249,9.85977146 L42.4448058,9.85977146 C42.33558,9.85977146 42.2420567,9.93630983 42.2223129,10.0429127 L41.1234728,16.0072828 L42.7273383,16.0072828 L42.2542956,18.5713756 L40.3480383,18.7557791 C40.2477029,18.7659919 40.1665339,18.8400057 40.1480602,18.9390351 L39.9283384,20.1335845 L45.0608005,19.643716 L45.2342226,21.1415501 C45.3235892,21.102076 45.4116858,21.059389 45.5010524,21.0180789 C45.5059018,21.0160134 45.5120212,21.0167019 45.5174478,21.0140626 C45.5795657,20.9854898 45.6409909,20.9542778 45.702416,20.9244427 C45.789127,20.8838212 45.8757226,20.8417079 45.9618563,20.7995945 C46.0969454,20.7324657 46.2299562,20.6646483 46.3637753,20.5935032 C46.3924096,20.5792742 46.4217366,20.5650452 46.4504863,20.5493244 L46.4504863,20.5479474 C47.768471,19.8431518 48.9751515,18.98505 49.7907664,18.1535702 L49.2392103,21.1415501 L50.6861647,21.1415501 C50.7946978,21.1415501 50.888221,21.0642085 50.9079648,20.9577203 L51.4295011,18.1535702 C51.9099333,19.0569983 52.8299248,19.8974286 54.1644203,20.6497308 C54.1997513,20.6694678 54.2379688,20.6795659 54.2761864,20.6795659 C54.3438464,20.6795659 54.4106982,20.6490423 54.4543423,20.5921262 C54.5246579,20.5026211 54.5990147,20.419083 54.6721013,20.3335941 C54.7566186,20.2339909 54.8440224,20.1376008 54.932119,20.0446531 C54.9771487,19.9971465 55.0228712,19.9504432 55.0687091,19.9050022 C55.1887883,19.785662 55.3109458,19.6688463 55.4365671,19.5616696 C55.2898165,19.5075075 55.1477997,19.4497882 55.0099396,19.3901181 C55.0038201,19.3873641 54.9989708,19.3846101 54.9928514,19.3819708 C54.8583396,19.323563 54.727407,19.2625159 54.5990147,19.2000918 L54.5990147,19.2028458 C53.6067448,18.7184853 52.8388152,18.1005556 52.3146233,17.3613349 L55.2679944,17.3613349 C55.3772203,17.3613349 55.470628,17.2826163 55.4904873,17.1760134 L55.6931209,16.0643137 L51.8109835,16.0643137 L51.9584269,15.2665704 Z M53.7465678,11.4518154 C53.6756749,11.808459 53.3561949,12.0696304 52.9876442,12.0696304 L52.1781487,12.0696304 L52.4409374,10.6478757 L53.894704,10.6478757 L53.7465678,11.4518154 Z M55.9436708,7.71554961 L54.6243006,7.71554961 C54.5151902,7.71554961 54.4215515,7.79220273 54.4025004,7.89869089 L54.1342851,9.35303466 L52.6805185,9.35303466 L52.9815248,7.71554961 L51.6649256,7.71554961 C51.5556997,7.71554961 51.4614837,7.79289123 51.4424327,7.89937939 L51.1782585,9.35303466 L50.0746844,9.35303466 L50.3135727,8.05406263 L48.9395896,8.05406263 C48.8310565,8.05406263 48.7376487,8.13140426 48.7177895,8.23720392 L48.5109992,9.35303466 L47.9246894,9.35303466 C47.8154635,9.35303466 47.7220558,9.43026153 47.7028893,9.53686445 L47.4981773,10.6478757 L48.2721109,10.6478757 L47.4708131,14.992547 L55.2549473,14.992547 C55.3634804,14.992547 55.4570036,14.9152054 55.4768629,14.8094057 L55.6726844,13.7511795 L49.2610324,13.7511795 L49.8344106,10.6478757 L50.9386774,10.6478757 L50.4861866,13.0857432 L54.0243664,13.0857432 C54.5581416,13.0857432 55.0181373,12.7093627 55.1191654,12.1910361 L55.404469,10.6478757 L56.6036446,10.6478757 C56.7121777,10.6478757 56.8062782,10.5705341 56.8253292,10.4641607 L57.0308494,9.35303466 L55.6440501,9.35303466 L55.9436708,7.71554961 Z M60.543166,10.704218 L69.9591072,10.704218 L70.7141052,10.704218 C70.8307206,10.704218 70.9304787,10.6214831 70.9514925,10.5075362 L71.1767565,9.28590581 L60.3500001,9.28590581 C60.2332693,9.28590581 60.1336267,9.36864069 60.1123819,9.48258762 L59.8872334,10.704218 L60.543166,10.704218 Z M28.5186206,12.0602209 C29.9798921,11.3730968 31.4151849,10.4525709 32.7857042,9.32446187 C33.6819107,10.4837829 34.7200185,11.4036204 35.869315,12.0602209 L28.5186206,12.0602209 Z M39.3687,11.7237734 C39.237652,11.6823486 39.1071814,11.6382845 38.9795972,11.5921549 C37.2685841,10.9673402 35.6932373,9.78311834 34.1815095,7.97936027 C34.1384426,7.92852594 34.0750547,7.89937939 34.0080874,7.89937939 L31.8009393,7.89937939 C31.7456336,7.89937939 31.6924062,7.91969017 31.6514176,7.95572173 C29.478215,9.87663973 27.2519005,11.1811198 24.8446589,11.9442085 C24.7537913,11.9726665 24.6904033,12.0560899 24.6876322,12.1517915 C24.6747006,12.6618561 24.6166239,13.5260397 24.6092344,13.6596089 C24.8432734,13.5680383 25.1626378,13.4426163 25.5060182,13.3069816 C26.2164483,13.0267617 26.9727163,12.7269194 27.3583553,12.5689084 L27.1897826,13.5267282 L30.863167,13.5267282 L30.6140026,14.877223 L25.9011249,14.877223 C25.7913217,14.877223 25.6977985,14.9566302 25.678632,15.0638068 L25.4527908,16.3464843 L30.3430162,16.3464843 L29.7907673,19.3379068 L29.2209684,19.3379068 C28.6783028,18.4811819 28.3781048,18.0490328 28.1186645,17.7011102 L28.1193572,17.7011102 C28.1071184,17.6841272 28.0961496,17.6698982 28.0846035,17.6536036 C28.0613959,17.6230801 28.0388811,17.5925565 28.015558,17.5627215 C27.9507845,17.4772326 27.8858956,17.3924322 27.818351,17.3056811 C27.5433235,16.9671681 27.3222161,16.6843089 27.3302983,16.7209142 L26.037715,17.388416 C25.9796383,17.418251 25.9373796,17.4724131 25.9223697,17.5355257 C25.9073598,17.6000153 25.9209842,17.6671442 25.9598945,17.720044 C26.0328657,17.8176964 26.1250034,17.9439216 26.2356148,18.0944738 C26.3809799,18.2932211 26.5495526,18.522492 26.733828,18.7727621 C26.828044,18.8989873 26.9099057,19.0136228 27.1079209,19.3379068 L23.9648478,19.3379068 C23.8557374,19.3379068 23.7622142,19.4151336 23.7423549,19.5210481 L23.527367,20.6890901 L37.7504019,20.6890901 C37.858935,20.6890901 37.953151,20.6117485 37.972202,20.5045718 L38.18719,19.3379068 L34.9664118,19.3379068 C35.3431603,19.1330777 35.7464648,18.7999579 36.1560041,18.3624155 L36.1560041,18.3651695 C36.1779416,18.3421047 36.1962999,18.3203022 36.2174292,18.2973521 C36.2598033,18.2505341 36.3027547,18.203716 36.3451288,18.1541439 C36.3894658,18.1046866 36.4296461,18.05718 36.4700574,18.0096734 C36.4966134,17.9778876 36.5232848,17.9459871 36.5498408,17.913398 C36.6166926,17.8320402 36.6761549,17.7573378 36.7293823,17.6881434 L36.7423139,17.6725374 L36.7430067,17.6712752 C36.8058173,17.5884255 36.8618158,17.5145264 36.9013034,17.4609381 L35.7069772,16.8260253 C35.6728008,16.8084686 35.6359688,16.7996328 35.6004069,16.7996328 C35.529514,16.7996328 35.4598911,16.8327956 35.416247,16.8938427 C34.9828072,17.4976581 33.6272978,18.8888893 32.2049366,19.3379068 L31.8022094,19.3379068 L32.3537655,16.3464843 L37.0930837,16.3464843 C37.2023096,16.3464843 37.2958328,16.2691427 37.3148838,16.1626546 L37.5530794,14.877223 L32.6246365,14.877223 L32.8744936,13.5267282 L36.2924787,13.5267282 C36.4017046,13.5267282 36.4945351,13.4493866 36.5142789,13.3435869 L36.6686499,12.5106153 C36.7921929,12.5492862 36.9600729,12.6218083 37.1839513,12.7324274 C37.1900708,12.7357552 37.1968829,12.7385092 37.2036951,12.7411485 C37.7394331,12.9447153 38.1346553,13.0878087 38.4485931,13.1909692 C38.4718008,13.1991164 38.4957011,13.2024442 38.5196015,13.2024442 C38.5898017,13.2024442 38.6581544,13.1698551 38.7017986,13.1108735 C38.821185,12.9487315 39.5495116,12.1618896 39.8081437,11.8498838 C39.6690135,11.8146555 39.5318461,11.7746077 39.3959488,11.7331829 C39.3870583,11.7298551 39.3781678,11.7271011 39.3687,11.7237734 Z" id="Fill-1" fill="#2386EE"></path>
                    <path d="M79.5594278,19.4683089 L82.7344835,19.4683089 L83.8534138,13.3616486 L80.8703693,13.3616486 L80.9927577,12.694032 C81.0271651,12.5065302 81.1915812,12.3700923 81.383477,12.3700923 L84.035149,12.3700923 L84.654827,8.98840449 C84.6892343,8.80078795 84.8537659,8.66446474 85.0455462,8.66446474 L85.7605948,8.66446474 L85.0816854,12.3700923 L88.2741757,12.3700923 L88.1517873,13.0377088 C88.11738,13.2253254 87.9529639,13.3616486 87.7610681,13.3616486 L84.8999502,13.3616486 L83.7810199,19.4683089 L87.3921709,19.4683089 L87.2697825,20.1360402 C87.2354906,20.3237715 87.0710745,20.4600947 86.8791787,20.4600947 L79.0464356,20.4600947 L79.1687085,19.7923634 C79.2031158,19.6046321 79.367532,19.4683089 79.5594278,19.4683089 Z M79.2248224,14.915825 L79.7084876,14.5623945 C79.8120559,14.721553 80.3774673,15.5184929 80.7005265,15.9802477 C80.819913,16.1509959 80.7849284,16.3839388 80.621205,16.5134918 L80.0533689,16.963083 C79.7873473,16.4958202 79.4781434,15.9908047 79.1271426,15.4489543 C79.0134138,15.2731571 79.055326,15.0397552 79.2248224,14.915825 Z M78.7627484,8.88891609 L79.4378476,8.61225341 C79.5901403,9.04543533 79.745666,9.52727134 79.90454,10.0563844 C79.9612312,10.2452632 79.8704791,10.446994 79.6903603,10.5293847 L78.9742726,10.8564227 C78.8274065,10.3086053 78.6813486,9.81426153 78.5363299,9.37385035 C78.4717873,9.17808654 78.5709681,8.96740521 78.7627484,8.88891609 Z M76.4518011,12.056939 L76.5550231,11.4936304 C76.5893149,11.3060139 76.7537311,11.1696907 76.9456269,11.1696907 L80.7486737,11.1696907 L80.7485582,11.1698054 C80.6279017,11.8288157 80.3452538,12.4472044 79.9271703,12.9726455 C79.5834436,13.4045651 79.215701,13.8300588 78.8238272,14.2491265 L77.6684113,20.5536161 C77.634004,20.7413474 77.4695878,20.8776706 77.277692,20.8776706 L76.6147163,20.8776706 L77.6092954,15.4494133 C76.9777249,16.041639 76.3439608,16.5456218 75.7096193,16.963083 L75.5746457,16.1585694 C75.5500525,16.011804 75.6119395,15.8646942 75.7324805,15.7765661 C77.2107248,14.6964227 78.4618577,13.4563175 79.4871493,12.056939 L76.4518011,12.056939 Z" id="Fill-12" fill="#2386EE"></path>
                    <path d="M92.5255336,11.9037016 L92.9829892,11.49106 C93.3091659,11.8042132 93.8243518,12.3260971 94.5279698,13.056941 C95.0817196,13.6489371 95.5053452,14.1007086 95.7968836,14.4138618 C96.8274864,13.4913851 97.7927385,12.5251886 98.6936789,11.5145838 C98.8348874,11.3562285 99.0749303,11.335344 99.2399238,11.4689132 L99.7195478,11.8564246 C98.6778607,12.9703046 97.5730166,14.0484973 96.4052464,15.0924944 C97.5009691,16.284175 98.3285919,17.1949472 98.8881148,17.8254994 C99.0325562,17.9883299 99.016969,18.2356165 98.8540539,18.3802018 L98.1476649,19.0068525 C97.3329737,17.9287746 96.4635541,16.8669912 95.5385979,15.8231088 C94.3013203,16.920809 92.9735214,17.9434626 91.5539312,18.8911843 C91.3783154,19.0083443 91.1424291,18.9650834 91.0136903,18.7983514 C90.9879426,18.7650739 90.960232,18.7303046 90.9305586,18.693814 C90.7940839,18.4849687 90.6974433,18.3462357 90.6408675,18.2760086 C92.1320433,17.3717772 93.5622559,16.3280096 94.9302351,15.1447057 C94.1692331,14.2936036 93.3597377,13.3996997 92.5002477,12.462994 C92.352227,12.3016553 92.3628494,12.0504671 92.5255336,11.9037016 M90.9611557,9.76865981 L101.515078,9.76865981 L101.392805,10.4363911 C101.358398,10.6240077 101.193982,10.7604456 101.002086,10.7604456 L91.4422807,10.7604456 L89.8259454,19.5809476 L99.8741498,19.5809476 L99.7710433,20.1442563 C99.736636,20.3318728 99.5722199,20.4683108 99.3803241,20.4683108 L88.6693748,20.4683108 L90.570321,10.0925996 C90.6047283,9.90498303 90.7692599,9.76865981 90.9611557,9.76865981" id="Fill-14" fill="#2386EE"></path>
                    <g id="Group-5" transform="translate(0.000000, 10.000000)">
                        <mask id="mask-2" fill="white">
                            <use xlink:href="#path-1"></use>
                        </mask>
                        <g id="Clip-4"></g>
                        <path d="M6.66666667,3.33339572 C6.66666667,5.17445524 5.17437145,6.66666667 3.33358288,6.66666667 C1.49229521,6.66666667 -6.36856968e-14,5.17445524 -6.36856968e-14,3.33339572 C-6.36856968e-14,1.49221143 1.49229521,-1.03334008e-13 3.33358288,-1.03334008e-13 C5.17437145,-1.03334008e-13 6.66666667,1.49221143 6.66666667,3.33339572" id="Fill-3" fill="#00CCFE" mask="url(#mask-2)"></path>
                    </g>
                    <circle id="Oval-4" fill="#A06EFF" cx="20.4166667" cy="27.9166667" r="2.08333333"></circle>
                    <circle id="Oval-2" fill="#2386EE" cx="11.25" cy="4.58333333" r="4.58333333"></circle>
                    <circle id="Oval" fill="#05C8C8" cx="12.5" cy="21.6666667" r="3.33333333"></circle>
                </g>
            </g>
        </g>
    </g>
</svg>